<svg xmlns="http://www.w3.org/2000/svg" viewBox="0 0 200 220">
  <!-- Oreilles -->
  <circle cx="58" cy="65" r="26" fill="#8B6347"/>
  <circle cx="142" cy="65" r="26" fill="#8B6347"/>
  <circle cx="58" cy="65" r="16" fill="#C4956A"/>
  <circle cx="142" cy="65" r="16" fill="#C4956A"/>
  <!-- Corps -->
  <ellipse cx="100" cy="178" rx="55" ry="48" fill="#8B6347"/>
  <!-- Ventre -->
  <ellipse cx="100" cy="185" rx="34" ry="30" fill="#C4956A"/>
  <!-- Bras -->
  <ellipse cx="50" cy="175" rx="18" ry="28" fill="#8B6347" transform="rotate(15 50 175)"/>
  <ellipse cx="150" cy="175" rx="18" ry="28" fill="#8B6347" transform="rotate(-15 150 175)"/>
  <!-- Pattes -->
  <ellipse cx="76" cy="215" rx="20" ry="11" fill="#8B6347"/>
  <ellipse cx="124" cy="215" rx="20" ry="11" fill="#8B6347"/>
  <!-- Tête -->
  <circle cx="100" cy="108" r="58" fill="#8B6347"/>
  <!-- Museau -->
  <ellipse cx="100" cy="122" rx="26" ry="20" fill="#C4956A"/>
  <!-- Yeux -->
  <circle cx="82" cy="100" r="11" fill="#2D1B00"/>
  <circle cx="118" cy="100" r="11" fill="#2D1B00"/>
  <circle cx="86" cy="96" r="4" fill="white"/>
  <circle cx="122" cy="96" r="4" fill="white"/>
  <!-- Nez -->
  <ellipse cx="100" cy="114" rx="8" ry="6" fill="#2D1B00"/>
  <!-- Sourire -->
  <path d="M90 122 Q100 132 110 122" stroke="#2D1B00" stroke-width="2.5" stroke-linecap="round" fill="none"/>
  <!-- Joues -->
  <circle cx="70" cy="114" r="10" fill="#D4956A" opacity="0.5"/>
  <circle cx="130" cy="114" r="10" fill="#D4956A" opacity="0.5"/>
</svg>
