<svg xmlns="http://www.w3.org/2000/svg" viewBox="0 0 200 220">
  <!-- Oreilles -->
  <polygon points="52,70 35,20 75,55" fill="#E8722A"/>
  <polygon points="148,70 165,20 125,55" fill="#E8722A"/>
  <polygon points="55,65 42,30 72,55" fill="#F5C5A0"/>
  <polygon points="145,65 158,30 128,55" fill="#F5C5A0"/>
  <!-- Corps -->
  <ellipse cx="100" cy="175" rx="55" ry="42" fill="#E8722A"/>
  <!-- Queue -->
  <ellipse cx="158" cy="185" rx="30" ry="18" fill="#E8722A" transform="rotate(-20 158 185)"/>
  <ellipse cx="168" cy="178" rx="14" ry="9" fill="#F5F5F5" transform="rotate(-20 168 178)"/>
  <!-- Pattes -->
  <ellipse cx="75" cy="208" rx="18" ry="10" fill="#E8722A"/>
  <ellipse cx="125" cy="208" rx="18" ry="10" fill="#E8722A"/>
  <!-- Tête -->
  <circle cx="100" cy="105" r="58" fill="#E8722A"/>
  <!-- Museau blanc -->
  <ellipse cx="100" cy="122" rx="30" ry="22" fill="#F5F5F5"/>
  <!-- Yeux -->
  <circle cx="80" cy="98" r="11" fill="#2D1B00"/>
  <circle cx="120" cy="98" r="11" fill="#2D1B00"/>
  <circle cx="84" cy="94" r="4" fill="white"/>
  <circle cx="124" cy="94" r="4" fill="white"/>
  <!-- Nez -->
  <ellipse cx="100" cy="114" rx="7" ry="5" fill="#2D1B00"/>
  <!-- Sourire -->
  <path d="M90 122 Q100 132 110 122" stroke="#2D1B00" stroke-width="2.5" stroke-linecap="round" fill="none"/>
  <!-- Joues -->
  <circle cx="68" cy="112" r="10" fill="#F5A080" opacity="0.5"/>
  <circle cx="132" cy="112" r="10" fill="#F5A080" opacity="0.5"/>
</svg>
