<svg xmlns="http://www.w3.org/2000/svg" viewBox="0 0 200 240">
  <!-- Oreilles longues -->
  <ellipse cx="75" cy="48" rx="16" ry="48" fill="#F0F0F0"/>
  <ellipse cx="125" cy="48" rx="16" ry="48" fill="#F0F0F0"/>
  <ellipse cx="75" cy="48" rx="9" ry="38" fill="#FFB6C1"/>
  <ellipse cx="125" cy="48" rx="9" ry="38" fill="#FFB6C1"/>
  <!-- Corps -->
  <ellipse cx="100" cy="180" rx="52" ry="48" fill="#F0F0F0"/>
  <!-- Ventre -->
  <ellipse cx="100" cy="185" rx="32" ry="30" fill="#FAFAFA"/>
  <!-- Pattes -->
  <ellipse cx="72" cy="218" rx="22" ry="12" fill="#F0F0F0"/>
  <ellipse cx="128" cy="218" rx="22" ry="12" fill="#F0F0F0"/>
  <!-- Tête -->
  <circle cx="100" cy="112" r="52" fill="#F0F0F0"/>
  <!-- Yeux -->
  <circle cx="82" cy="106" r="10" fill="#FF9CC0"/>
  <circle cx="118" cy="106" r="10" fill="#FF9CC0"/>
  <circle cx="82" cy="106" r="6" fill="#2D1B2D"/>
  <circle cx="118" cy="106" r="6" fill="#2D1B2D"/>
  <circle cx="85" cy="103" r="2.5" fill="white"/>
  <circle cx="121" cy="103" r="2.5" fill="white"/>
  <!-- Nez -->
  <ellipse cx="100" cy="120" rx="6" ry="4" fill="#FFB6C1"/>
  <!-- Sourire -->
  <path d="M92 125 Q100 133 108 125" stroke="#D4A0A0" stroke-width="2" stroke-linecap="round" fill="none"/>
  <!-- Moustaches -->
  <line x1="60" y1="120" x2="88" y2="122" stroke="#D0D0D0" stroke-width="1.5"/>
  <line x1="112" y1="122" x2="140" y2="120" stroke="#D0D0D0" stroke-width="1.5"/>
  <!-- Joues -->
  <circle cx="70" cy="118" r="9" fill="#FFB6C1" opacity="0.4"/>
  <circle cx="130" cy="118" r="9" fill="#FFB6C1" opacity="0.4"/>
  <!-- Queue -->
  <circle cx="152" cy="188" r="14" fill="white"/>
</svg>
