<svg xmlns="http://www.w3.org/2000/svg" viewBox="0 0 200 220" fill="none">

  <!-- Oreilles -->
  <circle cx="52" cy="62" r="28" fill="#2D2D2D"/>
  <circle cx="148" cy="62" r="28" fill="#2D2D2D"/>
  <circle cx="52" cy="62" r="16" fill="#3D3D3D"/>
  <circle cx="148" cy="62" r="16" fill="#3D3D3D"/>

  <!-- Corps -->
  <ellipse cx="100" cy="168" rx="52" ry="44" fill="#F0F0F0"/>

  <!-- Bras gauche -->
  <ellipse cx="52" cy="172" rx="18" ry="26" rx="18" ry="26" fill="#2D2D2D" transform="rotate(-18 52 172)"/>
  <!-- Bras droit -->
  <ellipse cx="148" cy="172" rx="18" ry="26" fill="#2D2D2D" transform="rotate(18 148 172)"/>

  <!-- Tête -->
  <circle cx="100" cy="108" r="70" fill="#F5F5F5"/>

  <!-- Patches yeux -->
  <ellipse cx="74" cy="100" rx="22" ry="19" fill="#2D2D2D" transform="rotate(-10 74 100)"/>
  <ellipse cx="126" cy="100" rx="22" ry="19" fill="#2D2D2D" transform="rotate(10 126 100)"/>

  <!-- Yeux blancs -->
  <circle cx="74" cy="100" r="11" fill="white"/>
  <circle cx="126" cy="100" r="11" fill="white"/>

  <!-- Pupilles -->
  <circle cx="76" cy="101" r="7" fill="#1A1A1A"/>
  <circle cx="124" cy="101" r="7" fill="#1A1A1A"/>

  <!-- Reflets yeux -->
  <circle cx="79" cy="97" r="2.5" fill="white"/>
  <circle cx="127" cy="97" r="2.5" fill="white"/>

  <!-- Nez -->
  <ellipse cx="100" cy="118" rx="9" ry="6" fill="#2D2D2D"/>

  <!-- Sourire -->
  <path d="M86 128 Q100 142 114 128" stroke="#2D2D2D" stroke-width="3" stroke-linecap="round" fill="none"/>

  <!-- Joues roses -->
  <circle cx="66" cy="122" r="12" fill="#FFB6C1" opacity="0.6"/>
  <circle cx="134" cy="122" r="12" fill="#FFB6C1" opacity="0.6"/>

  <!-- Petites pattes -->
  <ellipse cx="78" cy="205" rx="20" ry="11" fill="#2D2D2D"/>
  <ellipse cx="122" cy="205" rx="20" ry="11" fill="#2D2D2D"/>

  <!-- Bambou petit accessoire -->
  <rect x="155" y="155" width="7" height="48" rx="3.5" fill="#7A9E7E"/>
  <ellipse cx="158.5" cy="155" rx="9" ry="6" fill="#9ABE9E"/>
  <ellipse cx="158.5" cy="173" rx="9" ry="6" fill="#9ABE9E"/>
  <ellipse cx="158.5" cy="191" rx="9" ry="6" fill="#9ABE9E"/>

</svg>
